# xmcd
# Track frame offsets:
# 150
# 9722
# 25317
# 37455
# 49380
# 58840
# 68977
# 83352
# 96562
# 108550
# 119170
#
# Disc length: 1720 seconds
# Revision: 0
# Processed by: cddbd v1.4PL0 Copyright (c) Steve Scherf et al.
# Submitted via: VisiTrax 2.9.5.180 - For more info visit www.synapsa.com
#
DISCID=a606b60b
DTITLE=Stone Horse an friends - Tribute to Tulsa music
DYEAR=1900
DGENRE=
TTITLE0=Introduction
TTITLE1=Take me back to Tulsa/Big balls in cowtown
TTITLE2=Taking Bob back to Tulsa
TTITLE3=Fiddle man
TTITLE4=T.U.L.S.A straight ahead
TTITLE5=Twin steel guitar rag
TTITLE6=Ragg mopp
TTITLE7=Swing band in heaven
TTITLE8=Heart over mind
TTITLE9=Stay all night
TTITLE10=Bob Wills is still the king
EXTD=
EXTT0=
EXTT1=
EXTT2=
EXTT3=
EXTT4=
EXTT5=
EXTT6=
EXTT7=
EXTT8=
EXTT9=
EXTT10=
PLAYORDER=
